<svg width="18" height="19" viewBox="0 0 18 19" fill="none" xmlns="http://www.w3.org/2000/svg">
<g clip-path="url(#clip0_929_57693)">
<mask id="mask0_929_57693" style="mask-type:alpha" maskUnits="userSpaceOnUse" x="0" y="0" width="18" height="19">
<rect y="0.585693" width="18" height="18" fill="#D9D9D9"/>
</mask>
<g mask="url(#mask0_929_57693)">
<path d="M3 15.5857C2.5875 15.5857 2.23438 15.4388 1.94062 15.1451C1.64688 14.8513 1.5 14.4982 1.5 14.0857V5.08569C1.5 4.67319 1.64688 4.32007 1.94062 4.02632C2.23438 3.73257 2.5875 3.58569 3 3.58569H15C15.4125 3.58569 15.7656 3.73257 16.0594 4.02632C16.3531 4.32007 16.5 4.67319 16.5 5.08569V14.0857C16.5 14.4982 16.3531 14.8513 16.0594 15.1451C15.7656 15.4388 15.4125 15.5857 15 15.5857H3ZM9 10.3357L15 6.58569V5.08569L9 8.83569L3 5.08569V6.58569L9 10.3357Z" fill="#454545"/>
</g>
</g>
<defs>
<clipPath id="clip0_929_57693">
<rect width="18" height="18" fill="white" transform="translate(0 0.585693)"/>
</clipPath>
</defs>
</svg>
