<svg width="18" height="19" viewBox="0 0 18 19" fill="none" xmlns="http://www.w3.org/2000/svg">
<path d="M17.25 4.40874C16.6426 4.68058 15.9678 4.85047 15.2929 4.95241C16.0015 4.51067 16.5414 3.86506 16.7776 3.08352C16.1028 3.49128 15.3942 3.76312 14.6181 3.89904C13.3359 2.53984 11.2101 2.47188 9.82669 3.76312C8.94939 4.57863 8.57822 5.83589 8.84816 7.02519C6.11503 6.88927 3.58436 5.59803 1.8635 3.4573C0.952454 5.02037 1.42485 6.99121 2.90951 8.01061C2.36963 7.97663 1.8635 7.84071 1.3911 7.56887C1.35736 9.19991 2.5046 10.6271 4.09049 10.9329C3.58436 11.0688 3.07822 11.1028 2.57209 11.0008C3.01074 12.394 4.29294 13.3455 5.74387 13.3794C4.32669 14.5008 2.53834 15.0105 0.75 14.8066C2.30215 15.792 4.09049 16.3357 5.94632 16.3357C12.2224 16.3357 15.7653 11.0008 15.5629 6.20967C16.2377 5.69997 16.8113 5.08833 17.25 4.40874Z" fill="#454545"/>
</svg>
